{
  "accessors": [
    {
      "bufferView": 2,
      "componentType": 5126,
      "count": 7750,
      "max": [
        0.9895788431167603,
        -1.1366098078724463e-05,
        0.1609438806772232
      ],
      "min": [
        -0.9899871349334717,
        -1.8305312395095825,
        -0.1652059555053711
      ],
      "type": "VEC3"
    },
    {
      "bufferView": 2,
      "byteOffset": 93000,
      "componentType": 5126,
      "count": 7750,
      "max": [
        1.0,
        1.0,
        1.0
      ],
      "min": [
        -1.0,
        -1.0,
        -1.0
      ],
      "type": "VEC3"
    },
    {
      "bufferView": 1,
      "componentType": 5126,
      "count": 7750,
      "max": [
        0.9968507289886475,
        0.999887228012085
      ],
      "min": [
        0.007840335369110107,
        0.0105208158493042
      ],
      "type": "VEC2"
    },
    {
      "bufferView": 0,
      "componentType": 5125,
      "count": 13113,
      "type": "SCALAR"
    }
  ],
  "asset": {
    "extras": {
      "author": "DylanWr (https://sketchfab.com/Dylanwr)",
      "license": "SKETCHFAB Standard (https://sketchfab.com/licenses)",
      "source": "https://sketchfab.com/3d-models/the-walking-zombie-2-the-chosen-one-30440a54a73246f19f009fa2da60b9a8",
      "title": "The Walking Zombie 2: The Chosen One"
    },
    "generator": "Sketchfab-16.85.0",
    "version": "2.0"
  },
  "bufferViews": [
    {
      "buffer": 0,
      "byteLength": 52452,
      "name": "floatBufferViews",
      "target": 34963
    },
    {
      "buffer": 0,
      "byteLength": 62000,
      "byteOffset": 52452,
      "byteStride": 8,
      "name": "floatBufferViews",
      "target": 34962
    },
    {
      "buffer": 0,
      "byteLength": 186000,
      "byteOffset": 114452,
      "byteStride": 12,
      "name": "floatBufferViews",
      "target": 34962
    }
  ],
  "buffers": [
    {
      "byteLength": 300452,
      "uri": "scene.bin"
    }
  ],
  "images": [
    {
      "uri": "textures/DefaultMaterial_baseColor.png"
    }
  ],
  "materials": [
    {
      "doubleSided": true,
      "name": "DefaultMaterial",
      "pbrMetallicRoughness": {
        "baseColorTexture": {
          "index": 0
        },
        "metallicFactor": 0.0
      }
    }
  ],
  "meshes": [
    {
      "name": "SubMesh_0_DefaultMaterial_0",
      "primitives": [
        {
          "attributes": {
            "NORMAL": 1,
            "POSITION": 0,
            "TEXCOORD_0": 2
          },
          "indices": 3,
          "material": 0,
          "mode": 4
        }
      ]
    }
  ],
  "nodes": [
    {
      "children": [
        1
      ],
      "matrix": [
        1.0,
        0.0,
        0.0,
        0.0,
        0.0,
        2.220446049250313e-16,
        -1.0,
        0.0,
        0.0,
        1.0,
        2.220446049250313e-16,
        0.0,
        0.0,
        0.0,
        0.0,
        1.0
      ],
      "name": "Sketchfab_model"
    },
    {
      "children": [
        2
      ],
      "matrix": [
        0.009999999776482582,
        0.0,
        0.0,
        0.0,
        0.0,
        0.0,
        0.009999999776482582,
        0.0,
        0.0,
        -0.009999999776482582,
        0.0,
        0.0,
        0.0,
        0.0,
        0.0,
        1.0
      ],
      "name": "The_chosenOne_TWZ2.fbx"
    },
    {
      "children": [
        3
      ],
      "name": "RootNode"
    },
    {
      "children": [
        4
      ],
      "matrix": [
        100.0,
        0.0,
        0.0,
        0.0,
        0.0,
        -100.00001525878795,
        1.5099582213796756e-05,
        0.0,
        0.0,
        -1.5099582213796756e-05,
        -100.00001525878795,
        0.0,
        0.0,
        0.0,
        0.0,
        1.0
      ],
      "name": "Hero"
    },
    {
      "children": [
        5
      ],
      "name": "SubMesh_0"
    },
    {
      "mesh": 0,
      "name": "SubMesh_0_DefaultMaterial_0"
    }
  ],
  "samplers": [
    {
      "magFilter": 9729,
      "minFilter": 9987,
      "wrapS": 10497,
      "wrapT": 10497
    }
  ],
  "scene": 0,
  "scenes": [
    {
      "name": "Sketchfab_Scene",
      "nodes": [
        0
      ]
    }
  ],
  "textures": [
    {
      "sampler": 0,
      "source": 0
    }
  ]
}
